<mxfile host="app.diagrams.net" agent="Mozilla/5.0 (Windows NT 10.0; Win64; x64) AppleWebKit/537.36 (KHTML, like Gecko) Chrome/131.0.0.0 Safari/537.36 Edg/131.0.0.0" version="24.8.6">
  <diagram name="Page-1" id="Xn0P7pT1EI6Usju8Uowx">
    <mxGraphModel dx="946" dy="567" grid="1" gridSize="10" guides="1" tooltips="1" connect="1" arrows="1" fold="1" page="1" pageScale="1" pageWidth="850" pageHeight="1100" math="0" shadow="0">
      <root>
        <mxCell id="0" />
        <mxCell id="1" parent="0" />
        <mxCell id="2yzfxVpUk2ljxrbaL864-5" value="" style="edgeStyle=orthogonalEdgeStyle;rounded=0;orthogonalLoop=1;jettySize=auto;html=1;" edge="1" parent="1" source="2yzfxVpUk2ljxrbaL864-1" target="2yzfxVpUk2ljxrbaL864-4">
          <mxGeometry relative="1" as="geometry" />
        </mxCell>
        <mxCell id="2yzfxVpUk2ljxrbaL864-1" value="Начало" style="ellipse;whiteSpace=wrap;html=1;" vertex="1" parent="1">
          <mxGeometry x="360" y="260" width="120" height="80" as="geometry" />
        </mxCell>
        <mxCell id="2yzfxVpUk2ljxrbaL864-7" value="" style="edgeStyle=orthogonalEdgeStyle;rounded=0;orthogonalLoop=1;jettySize=auto;html=1;" edge="1" parent="1" source="2yzfxVpUk2ljxrbaL864-4" target="2yzfxVpUk2ljxrbaL864-6">
          <mxGeometry relative="1" as="geometry" />
        </mxCell>
        <mxCell id="2yzfxVpUk2ljxrbaL864-4" value="Вход: а, b" style="shape=parallelogram;perimeter=parallelogramPerimeter;whiteSpace=wrap;html=1;fixedSize=1;" vertex="1" parent="1">
          <mxGeometry x="360" y="430" width="120" height="60" as="geometry" />
        </mxCell>
        <mxCell id="2yzfxVpUk2ljxrbaL864-9" value="" style="edgeStyle=orthogonalEdgeStyle;rounded=0;orthogonalLoop=1;jettySize=auto;html=1;" edge="1" parent="1" source="2yzfxVpUk2ljxrbaL864-6" target="2yzfxVpUk2ljxrbaL864-8">
          <mxGeometry relative="1" as="geometry" />
        </mxCell>
        <mxCell id="2yzfxVpUk2ljxrbaL864-6" value="sum = a + b" style="whiteSpace=wrap;html=1;" vertex="1" parent="1">
          <mxGeometry x="360" y="570" width="120" height="60" as="geometry" />
        </mxCell>
        <mxCell id="2yzfxVpUk2ljxrbaL864-8" value="Изход: sum" style="shape=parallelogram;perimeter=parallelogramPerimeter;whiteSpace=wrap;html=1;fixedSize=1;" vertex="1" parent="1">
          <mxGeometry x="360" y="710" width="120" height="60" as="geometry" />
        </mxCell>
        <mxCell id="2yzfxVpUk2ljxrbaL864-12" value="Край" style="ellipse;whiteSpace=wrap;html=1;" vertex="1" parent="1">
          <mxGeometry x="360" y="820" width="120" height="80" as="geometry" />
        </mxCell>
        <mxCell id="2yzfxVpUk2ljxrbaL864-13" value="" style="endArrow=classic;html=1;rounded=0;exitX=0.5;exitY=1;exitDx=0;exitDy=0;entryX=0.5;entryY=0;entryDx=0;entryDy=0;" edge="1" parent="1" source="2yzfxVpUk2ljxrbaL864-8" target="2yzfxVpUk2ljxrbaL864-12">
          <mxGeometry width="50" height="50" relative="1" as="geometry">
            <mxPoint x="400" y="720" as="sourcePoint" />
            <mxPoint x="450" y="670" as="targetPoint" />
          </mxGeometry>
        </mxCell>
      </root>
    </mxGraphModel>
  </diagram>
</mxfile>
